<?xml version="1.0" standalone="no"?>
<!DOCTYPE svg PUBLIC "-//W3C//DTD SVG 20010904//EN"
 "http://www.w3.org/TR/2001/REC-SVG-20010904/DTD/svg10.dtd">
<svg version="1.0" xmlns="http://www.w3.org/2000/svg"
 width="1194.000000pt" height="612.000000pt" viewBox="0 0 1194.000000 612.000000" style="background-color: white"
 preserveAspectRatio="xMidYMid meet">

<g transform="translate(0.000000,612.000000) scale(0.100000,-0.100000)" stroke="none">
<path fill="#018849" d="M9109 5025 c-532 -83 -888 -377 -975 -805 -24 -122 -15 -323 20 -443
51 -171 140 -313 290 -462 142 -142 359 -271 756 -450 453 -205 619 -305 735
-441 107 -126 140 -222 139 -404 -1 -144 -17 -220 -70 -320 -73 -139 -194
-237 -357 -289 -120 -38 -217 -51 -392 -51 -175 0 -328 24 -475 75 -185 65
-249 108 -274 183 -30 90 -66 417 -66 594 l0 38 -159 0 -160 0 -5 -53 c-6 -58
-36 -766 -36 -837 l0 -45 218 -59 c532 -145 621 -163 872 -173 314 -12 601 42
830 157 258 130 417 284 530 515 73 149 101 254 107 405 6 149 -18 276 -77
399 -48 101 -97 168 -194 270 -149 155 -279 234 -878 530 -222 110 -443 226
-493 259 -95 63 -216 178 -265 251 -112 167 -115 459 -6 644 36 62 135 150
208 186 128 63 199 75 443 75 211 1 225 0 330 -28 201 -52 267 -95 298 -193
33 -103 57 -296 57 -459 l0 -94 154 0 154 0 6 128 c13 270 28 724 23 728 -3 3
-78 25 -168 50 -197 54 -453 109 -569 124 -116 14 -446 11 -551 -5z"/>
<path fill="#018849" d="M1290 4892 l0 -129 88 -13 c139 -20 200 -54 249 -138 l28 -47 6
-1045 c5 -999 6 -1051 26 -1175 50 -309 125 -523 245 -705 55 -83 186 -220
264 -276 149 -107 351 -185 581 -225 172 -31 516 -33 663 -6 543 103 909 448
1044 983 61 241 59 205 65 1364 7 1184 1 1096 75 1178 46 50 107 76 219 92
l87 13 0 129 0 128 -542 -2 -543 -3 0 -124 0 -125 84 -18 c94 -21 135 -42 180
-93 63 -72 61 -42 61 -1095 0 -1119 -7 -1246 -77 -1490 -58 -202 -126 -323
-253 -450 -108 -108 -181 -152 -325 -196 -86 -27 -100 -28 -300 -28 -189 -1
-218 2 -294 22 -169 46 -282 113 -397 234 -164 173 -246 397 -284 777 -15 157
-14 2102 2 2155 8 24 31 59 58 87 46 46 66 54 195 82 l60 12 0 125 0 125 -632
3 -633 2 0 -128z"/>
<path fill="#018849" d="M5280 4203 l0 -89 72 -12 c74 -13 130 -40 144 -70 4 -9 8 -444 9
-967 l2 -950 -32 -30 c-33 -32 -76 -49 -152 -61 l-43 -7 0 -89 0 -90 608 5
c629 4 685 8 879 52 226 52 396 141 555 293 177 170 288 377 332 623 49 276
17 563 -88 785 -80 168 -176 292 -306 397 -149 119 -290 188 -472 232 -225 54
-269 57 -910 62 l-598 5 0 -89z m1055 -103 c294 -28 491 -113 652 -283 170
-179 255 -394 270 -680 18 -378 -101 -695 -338 -895 -190 -160 -373 -210 -791
-219 l-248 -6 0 1047 0 1046 173 0 c94 0 222 -5 282 -10z"/>
</g>
</svg>
